<?xml version="1.0" encoding="UTF-8" standalone="no"?>
<svg
   xmlns:dc="http://purl.org/dc/elements/1.1/"
   xmlns:cc="http://creativecommons.org/ns#"
   xmlns:rdf="http://www.w3.org/1999/02/22-rdf-syntax-ns#"
   xmlns:svg="http://www.w3.org/2000/svg"
   xmlns="http://www.w3.org/2000/svg"
   xmlns:xlink="http://www.w3.org/1999/xlink"
   xmlns:sodipodi="http://sodipodi.sourceforge.net/DTD/sodipodi-0.dtd"
   xmlns:inkscape="http://www.inkscape.org/namespaces/inkscape"
   version="1.1"
   preserveAspectRatio="xMidYMid meet"
   viewBox="0 0 255.7761 111.8"
   width="439.61517"
   height="192.15625"
   id="svg981"
   sodipodi:docname="horizontal_flash_cropped.svg"
   inkscape:version="0.92.4 (5da689c313, 2019-01-14)">
  <metadata
     id="metadata985">
    <rdf:RDF>
      <cc:Work
         rdf:about="">
        <dc:format>image/svg+xml</dc:format>
        <dc:type
           rdf:resource="http://purl.org/dc/dcmitype/StillImage" />
        <dc:title></dc:title>
      </cc:Work>
    </rdf:RDF>
  </metadata>
  <sodipodi:namedview
     pagecolor="#ffffff"
     bordercolor="#666666"
     borderopacity="1"
     objecttolerance="10"
     gridtolerance="10"
     guidetolerance="10"
     inkscape:pageopacity="0"
     inkscape:pageshadow="2"
     inkscape:window-width="1680"
     inkscape:window-height="938"
     id="namedview983"
     showgrid="false"
     inkscape:zoom="0.66818182"
     inkscape:cx="189.29757"
     inkscape:cy="-81.623436"
     inkscape:window-x="0"
     inkscape:window-y="1"
     inkscape:window-maximized="1"
     inkscape:current-layer="g979" />
  <defs
     id="defs955">
    <path
       d=""
       id="c2dfFriK"
       inkscape:connector-curvature="0" />
    <path
       d=""
       id="c1prtneW1m"
       inkscape:connector-curvature="0" />
    <path
       d="m 218.54,242.97 c -2.58,-8.86 -3.91,-18.05 -3.97,-27.59 -1.36,-6.22 -0.75,-13.55 1.84,-22 1.77,-5.79 4.72,-12.42 8.85,-19.91 2.99,-5.4 8.67,-8.76 14.84,-8.76 41.31,0 155.27,0 196.58,0 6.17,0 11.86,3.35 14.85,8.75 3.26,5.87 5.68,11.55 7.27,17.03 2.45,8.44 3.32,16.74 2.59,24.89 0.73,9.2 -0.14,18.22 -2.59,27.08 -1.6,5.77 -4.01,11.54 -7.24,17.32 -3.01,5.39 -8.7,8.73 -14.88,8.73 -41.31,0 -155.27,0 -196.58,0 -6.16,0 -11.81,-3.39 -14.71,-8.83 -2.9,-5.45 -5.18,-11.02 -6.85,-16.71 z"
       id="a1H51JVonM"
       inkscape:connector-curvature="0" />
  </defs>
  <g
     id="g979"
     transform="translate(-209.86323,-160.71)">
    <g
       id="g977">
      <g
         id="g961">
        <g
           id="g959">
          <use
             xlink:href="#c2dfFriK"
             id="use957"
             style="opacity:1;fill-opacity:0;stroke:#050502;stroke-width:1;stroke-opacity:1"
             x="0"
             y="0"
             width="100%"
             height="100%" />
        </g>
      </g>
      <g
         id="g967">
        <g
           id="g965">
          <use
             xlink:href="#c1prtneW1m"
             id="use963"
             style="opacity:1;fill-opacity:0;stroke:#050502;stroke-width:1;stroke-opacity:1"
             x="0"
             y="0"
             width="100%"
             height="100%" />
        </g>
      </g>
      <g
         id="g975">
        <use
           xlink:href="#a1H51JVonM"
           id="use969"
           style="opacity:1;fill:#ffffff;fill-opacity:0"
           x="0"
           y="0"
           width="100%"
           height="100%" />
        <g
           id="g973">
          <use
             xlink:href="#a1H51JVonM"
             id="use971"
             style="opacity:1;fill-opacity:0;stroke:#000000;stroke-width:8;stroke-opacity:1"
             x="0"
             y="0"
             width="100%"
             height="100%" />
        </g>
      </g>
    </g>
  </g>
</svg>
